<?xml version="1.0" encoding="UTF-8"?>
<svg version="1.1" xmlns="http://www.w3.org/2000/svg" width="143" height="135">
<path d="M0 0 C1.31318207 -0.01007584 1.31318207 -0.01007584 2.65289307 -0.02035522 C5.54168402 -0.03932372 8.43024247 -0.04325896 11.3190918 -0.04541016 C13.33302403 -0.05183927 15.34695534 -0.05856771 17.36088562 -0.06558228 C21.5815955 -0.07755245 25.80222356 -0.0812634 30.02294922 -0.08007812 C35.41986361 -0.07987504 40.8162508 -0.1071675 46.21304035 -0.14162254 C50.3730254 -0.16390858 54.53288397 -0.16791513 58.69292259 -0.16685867 C60.681956 -0.16921243 62.67099302 -0.17802321 64.65996742 -0.19352341 C67.44816139 -0.21321616 70.23522359 -0.20733231 73.0234375 -0.1953125 C73.83773727 -0.20655151 74.65203705 -0.21779053 75.49101257 -0.22937012 C82.52116073 -0.15272443 87.54160632 2.11072389 92.95581055 6.54052734 C98.09487409 12.821605 99.80379325 18.385885 99.72338867 26.42529297 C99.73039795 27.30118576 99.73740723 28.17707855 99.74462891 29.07951355 C99.76212141 31.95226484 99.75061739 34.82401741 99.73706055 37.69677734 C99.73975797 39.70642281 99.74364248 41.71606699 99.74865723 43.72570801 C99.75454044 47.92859374 99.74602722 52.13113842 99.72729492 56.33398438 C99.70450625 61.70733034 99.71763563 67.07987699 99.74158478 72.45319366 C99.75607454 76.60034145 99.75142218 80.74730135 99.74107361 84.89445496 C99.73841511 86.87509761 99.74164506 88.85575762 99.75099182 90.83638 C99.76120985 93.6099635 99.74558335 96.38227256 99.72338867 99.15576172 C99.7314856 99.96534836 99.73958252 100.774935 99.7479248 101.60905457 C99.64465238 108.61447491 97.37076972 113.64446614 92.95581055 119.04052734 C86.67473289 124.17959088 81.11045289 125.88851005 73.07104492 125.80810547 C72.19515213 125.81511475 71.31925934 125.82212402 70.41682434 125.8293457 C67.54407306 125.84683821 64.67232048 125.83533419 61.79956055 125.82177734 C59.78991508 125.82447477 57.7802709 125.82835928 55.77062988 125.83337402 C51.56774415 125.83925724 47.36519947 125.83074402 43.16235352 125.81201172 C37.78900755 125.78922304 32.4164609 125.80235243 27.04314423 125.82630157 C22.89599644 125.84079133 18.74903654 125.83613898 14.60188293 125.82579041 C12.62124028 125.82313191 10.64058027 125.82636186 8.65995789 125.83570862 C5.88637439 125.84592664 3.11406533 125.83030014 0.34057617 125.80810547 C-0.87380379 125.82025085 -0.87380379 125.82025085 -2.11271667 125.8326416 C-8.63030456 125.7365607 -13.73558693 123.8143251 -18.7824707 119.64990234 C-19.43795898 118.85326172 -19.43795898 118.85326172 -20.10668945 118.04052734 C-20.55657227 117.51974609 -21.00645508 116.99896484 -21.4699707 116.46240234 C-25.23152388 110.2930113 -26.23960314 104.62060978 -26.19824219 97.5546875 C-26.20510544 96.72102158 -26.21196869 95.88735565 -26.21903992 95.02842712 C-26.23721661 92.29530398 -26.23348315 89.56275998 -26.2277832 86.82958984 C-26.23234976 84.91441666 -26.23765675 82.99924512 -26.2436676 81.08407593 C-26.25258109 77.07795539 -26.25019612 73.07203439 -26.24023438 69.06591797 C-26.22875394 63.95285721 -26.24895111 58.84048804 -26.27815151 53.72751808 C-26.29657143 49.77417687 -26.29620942 45.82099958 -26.29051399 41.86762619 C-26.29036145 39.98352464 -26.29634996 38.09941149 -26.30880547 36.2153511 C-26.42907405 15.0403643 -26.42907405 15.0403643 -19.8293457 6.85302734 C-19.17836914 6.33740234 -18.52739258 5.82177734 -17.85668945 5.29052734 C-17.20829102 4.75427734 -16.55989258 4.21802734 -15.8918457 3.66552734 C-10.64528866 0.2264434 -6.09268747 -0.00673138 0 0 Z M2.20581055 34.29052734 C-5.79231153 44.97019035 -8.87808586 56.95315663 -7.36450195 70.18896484 C-5.77259342 78.84633042 -2.59130108 85.69333009 3.20581055 92.29052734 C3.70725586 92.89638672 4.20870117 93.50224609 4.7253418 94.12646484 C12.45228159 102.73702063 23.16682195 106.40750004 34.4050293 107.50537109 C46.71487348 108.05787757 57.57629034 103.30509738 66.89331055 95.60302734 C76.39081809 86.78509713 80.56529496 75.49199213 81.2644043 62.75927734 C81.04658491 49.8643696 76.70313772 39.92824225 68.08081055 30.54052734 C59.36753006 22.26657192 48.68158742 18.50992936 36.83081055 17.97802734 C23.20173688 18.36330151 11.31559317 24.2996891 2.20581055 34.29052734 Z " fill="#605DEC" transform="translate(32.794189453125,4.70947265625)"/>
<path d="M0 0 C0.2475 1.093125 0.495 2.18625 0.75 3.3125 C1.7182912 6.90193958 1.7182912 6.90193958 3.625 8.9375 C8.00561527 10.89724894 12.47109579 10.50963474 17 9 C17.80563638 6.89415562 17.80563638 6.89415562 18.1875 4.4375 C18.34605469 3.61121094 18.50460938 2.78492188 18.66796875 1.93359375 C18.77753906 1.29550781 18.88710937 0.65742188 19 0 C27.21553473 0.63196421 33.18789055 4.80375734 38.75 10.625 C46.67338866 19.87818816 49.33830515 29.2939615 49.30078125 41.2265625 C48.85198372 46.85693153 47.13257268 51.8018541 45 57 C44.34 57 43.68 57 43 57 C42.97421875 56.20078125 42.9484375 55.4015625 42.921875 54.578125 C42.33171767 43.15053309 40.22216975 32.45587484 32 24 C26.26621968 19.76792405 19.96079372 19.13239391 13 20 C6.21249733 22.21937404 0.76849644 25.87179084 -3 32 C-5.55718903 37.05931897 -6.52431252 41.22974749 -6.4375 46.9375 C-6.42920166 47.64116699 -6.42090332 48.34483398 -6.41235352 49.06982422 C-6.16517243 56.65766786 -4.21789659 61.12080514 1.1875 66.3125 C6.64922871 70.62562482 13.1967068 72.12778292 20 73 C18.53694323 76.73384279 18.53694323 76.73384279 16.1875 77.8984375 C5.33907524 80.26184432 -3.74051333 76.7600393 -13 71 C-21.67338499 64.19031757 -26.94086687 54.7866897 -29 44 C-30.37878879 31.60771542 -26.85184105 21.2848296 -19.2890625 11.484375 C-14.59207655 6.38662233 -7.25780617 0 0 0 Z " fill="#605DEC" transform="translate(60,29)"/>
<path d="M0 0 C3.34589948 1.38200196 4.58264461 2.98054689 6.1953125 6.19921875 C7.23189232 9.23151259 7.13300223 12.02697266 6.875 15.1875 C-2.88161596 14.84576214 -2.88161596 14.84576214 -7.3125 12.5 C-9.125 10.1875 -9.125 10.1875 -9.8125 7.1875 C-9.125 4.1875 -9.125 4.1875 -6.5 1.75 C-3.125 0.1875 -3.125 0.1875 0 0 Z " fill="#605DEC" transform="translate(79.125,67.8125)"/>
<path d="M0 0 C0.99 0.33 1.98 0.66 3 1 C2.34 4.63 1.68 8.26 1 12 C0.67 12 0.34 12 0 12 C0 8.04 0 4.08 0 0 Z " fill="#605DEC" transform="translate(104,73)"/>
<path d="M0 0 C1.32 0.33 2.64 0.66 4 1 C3.01 1 2.02 1 1 1 C1.226875 1.763125 1.45375 2.52625 1.6875 3.3125 C1.790625 4.199375 1.89375 5.08625 2 6 C0.5625 7.8125 0.5625 7.8125 -1 9 C-2.60031344 5.79937313 -1.03173691 3.27728194 0 0 Z " fill="#605DEC" transform="translate(79,29)"/>
</svg>
